<svg xmlns="http://www.w3.org/2000/svg" xmlns:xlink="http://www.w3.org/1999/xlink" height="300px" width="300px" fill="#FFFFFF" version="1.1" x="0px" y="0px" viewBox="-265 380.9 64 64.3" style="enable-background:new -265 380.9 64 64.3;" xml:space="preserve"><g><path d="M-215.5,432.8c-2.7-4.5-4.4-9.6-8.8-12.6c2.5-0.3,5.1,0.1,7.3-0.8c3.6-1.5,5.1-6.2,4.3-10   c-0.8-3.9-3.3-7.1-5.8-10.2c-1.3-1.7-2.6-3.3-4-5c-2.1,4.6,0.2,10.4-2.2,14.8c-0.4,0.8-1.3,1.6-2.2,1.2c-1-0.5-0.5-2,0-3   c2.2-4,2.9-8.8,2.1-13.3c-0.2-0.8-0.4-1.7-0.9-2.4c-0.5-0.7-1.2-1.1-2-1.5c-2.4-1.3-4.9-2.1-7.6-2.5c2.1,2.6,2.6,6.2,2.9,9.5   c0.3,2.7,0.5,5.9-1.5,7.8c-1-0.4-1.7-1.5-1.8-2.6c-0.2-1.1,0-2.2,0.2-3.3c0.4-3.2,0.4-6.7-1.4-9.4c-2.4-3.8-8.1-4.9-11.8-2.3   c3,2.5,5.2,6,6.1,9.8c0.2,1,0.1,2.5-0.9,2.6c-0.9,0.1-1.5-0.9-1.9-1.8c-0.9-2.3-1.8-4.7-2.7-7c-0.4-1-0.8-2.1-1.7-2.8   c-2-1.5-4.7-0.1-7.1,0.4c-1.4,0.3-2.9,0.2-4.3-0.2c1.1,2.6,1.3,5.5,0.6,8.3c-0.4,1.5-1,2.9-1.2,4.4c-0.3,1.5-0.1,3.2,0.8,4.4   c1.3,1.6,3.7,1.8,5.8,1.5c4.1-0.4,8.3-1.8,12.2-0.6c-0.4,1.4-1.8,2.3-3.2,2.9c-5.6,2.5-12.3,2.8-18.1,0.6c2.1,1.1,4.4,2.2,5.5,4.4   c0.5,1,0.7,2.1,1.2,3c0.8,1.4,2.3,2.4,3.2,3.8c0.6,1,1,2.1,1.5,3.1c0.6,1,1.5,2,2.6,2c0.8,0.1,1.5-0.3,2.2-0.6   c3.7-1.6,7.5-2.9,11.4-3.9c1-0.3,2.4-0.4,2.8,0.6c-0.1,0.8-1,1.3-1.7,1.7c-4.2,2-8.7,3.7-13.2,4.9c2.9,2,5.9,4,9.2,5.2   c3.3,1.2,7.1,1.4,10.3-0.1c4.1-1.9,6.6-6.7,5.8-11.1c2.7,2.6,4.5,6,6.2,9.3c1.7,3.3,3.4,6.5,5.1,9.8c0.3-0.6,0.6-1.1,1-1.7   C-212.4,437.9-214,435.2-215.5,432.8z M-242.2,416.1c-0.8,0.4-1.7,0.7-2.6,1c-1.2,0.3-2.4,0.5-3.7,0.5c2.5-1.1,5-2.1,7.6-3l-0.1,0   c0.2-0.1,0.4,0,0.6,0.1C-240.6,415.5-241.4,415.8-242.2,416.1z"/></g></svg>